<svg class="site-logo" width="340" enable-background="new 0 0 341.927 50.593" viewBox="0 0 341.927 50.593" xmlns="http://www.w3.org/2000/svg" role="img" aria-labelledby="site-logo"><title id="site-logo">Site Logo</title><g fill="#2e3f5d"><path d="m147.588.355h.835v50.237h-.835z"></path><path d="m40.894 12.88c2.911 7.104 1.541 16.177-3.424 21.57-5.049 6.076-14.122 8.73-22.083 6.248-7.017-1.969-12.495-7.961-14.378-14.723-1.971-8.645 1.2-17.035 8.388-21.911 5.309-3.851 13.524-4.796 19.772-2.397 5.478 2.309 9.073 6.078 11.725 11.213m-18.831-10.528c-6.248.513-11.64 4.194-14.29 9.929-2.485 6.333-1.544 14.808 3.421 19.43 1.798 1.538 3.338 3.168 5.307 3.68-3.938-4.109-6.847-9.33-6.762-15.493.427-6.848 4.622-13.609 10.87-16.263.514-.085.77.172.599.599-4.536 3.168-7.36 7.961-8.387 13.526-.942 7.189 2.226 13.694 7.703 17.803-3.594-4.965-5.221-13.267-1.627-18.831 2.311-4.109 6.42-7.617 10.957-8.131v.684c-4.197 2.657-7.532 5.821-9.161 10.614-1.968 5.393-.599 12.24 3.253 16.434-1.797-4.707-1.369-10.699 1.624-14.721 1.713-2.139 3.937-5.136 6.765-5.307v.595c-1.971 1.543-3.596 3.852-4.965 5.994-2.054 4.368-2.311 11.041.687 14.981 1.195.597 2.222-.429 3.252-.942.427-1.541-.857-2.91-.513-4.708 1.797-2.827 2.567-6.422 1.708-9.843l.345-.343c.77.257 1.196.941 1.627 1.455 1.196 1.798 1.795 4.622.598 6.591-.598 1.627-2.825 3.338-1.541 5.136 2.653-1.713 4.451-4.452 5.65-7.19 2.397-5.307 1.541-12.67-1.626-17.204-3.765-5.136-8.986-8.39-15.494-8.475"></path><path d="m66.283 38.144h-6.647v-26.122c0-.977-.263-1.713-.787-2.209-.524-.497-1.349-.743-2.473-.743h-1.201v29.073h-6.646v-33.019h5.276l.722 1.468c.602-.508 1.337-.881 2.206-1.113.868-.237 1.817-.355 2.85-.355 2.101 0 3.744.587 4.926 1.762 1.181 1.172 1.774 2.798 1.774 4.869z"></path><path d="m77.52 16.077v-3.581c0-1.385.187-2.36.563-2.917.381-.557 1.08-.836 2.113-.836.938 0 1.604.286 2.002.856.396.57.595 1.535.595 2.897v3.581zm11.921-2.221c0-3.117-.737-5.396-2.21-6.847-1.472-1.445-3.829-2.169-7.074-2.169-3.023 0-5.326.771-6.911 2.318-1.583 1.544-2.374 3.776-2.374 6.697v24.347h6.649v-17.753h5.273v17.754h6.649v-24.347z"></path><path d="m121.862 38.203h-6.647v-27.313c0-.586-.159-1.064-.485-1.428-.32-.365-.771-.547-1.35-.547h-2.11v29.287h-6.562v-27.312c0-.586-.161-1.064-.483-1.428-.322-.365-.773-.547-1.353-.547h-2.108v29.287h-6.646v-33.019h5.317l.684 1.468c.415-.429 1.15-.783 2.206-1.057 1.057-.271 2.074-.411 3.045-.411 1.168 0 2.156.148 2.967.441.812.294 1.431.708 1.859 1.244.623-.536 1.38-.949 2.265-1.244.888-.293 1.791-.441 2.716-.441 2.047 0 3.673.559 4.879 1.675 1.202 1.115 1.807 2.694 1.807 4.743v26.602z"></path><path d="m126.908 5.182h6.649v33.02h-6.649z"></path><path d="m1.674 43.6h1.322l2.412 4.251v-4.251h1.172v6.105h-1.26l-2.472-4.328v4.328h-1.174z"></path><path d="m9.375 46.95c.218-.029.374-.063.468-.105.169-.072.254-.184.254-.338 0-.187-.066-.313-.194-.384-.128-.07-.317-.108-.566-.108-.28 0-.474.069-.592.205-.083.102-.139.237-.165.411h-1.143c.026-.388.135-.708.328-.96.315-.389.849-.586 1.606-.586.494 0 .931.096 1.317.287.381.191.572.559.572 1.105v2.074c0 .145.004.319.01.523.007.158.03.264.072.32.036.055.093.102.171.139v.171h-1.281c-.034-.09-.06-.175-.073-.257-.014-.079-.026-.169-.033-.271-.162.177-.349.327-.562.451-.254.147-.54.221-.862.221-.405 0-.744-.118-1.01-.352-.264-.234-.398-.567-.398-.998 0-.556.214-.96.642-1.21.237-.136.58-.233 1.039-.292zm.717.547c-.075.047-.149.086-.226.115-.076.03-.178.058-.313.08l-.264.052c-.247.044-.429.099-.54.162-.187.109-.283.279-.283.507 0 .204.057.351.17.443.113.09.25.136.412.136.257 0 .493-.078.708-.227.215-.152.328-.427.336-.825z"></path><path d="m11.721 46.074v-.829h.628v-1.273h1.174v1.273h.727v.829h-.727v2.388c0 .187.023.302.07.346.046.047.188.069.428.069.035 0 .073-.001.112-.003.039-.001.079-.007.116-.01v.886l-.557.013c-.559.02-.941-.076-1.143-.289-.134-.135-.2-.345-.2-.625v-2.775z"></path><path d="m14.899 49.704h1.174v-4.518h-1.174zm0-5.047h1.174v-1.087h-1.174z"></path><path d="m20.893 49.149c-.382.467-.96.7-1.734.7s-1.35-.233-1.731-.7c-.381-.468-.57-1.03-.57-1.687 0-.646.19-1.205.57-1.679.381-.474.957-.711 1.731-.711s1.352.237 1.734.711c.381.474.569 1.033.569 1.679-.001.657-.189 1.219-.569 1.687m-.94-.652c.187-.243.28-.589.28-1.039 0-.448-.093-.794-.28-1.034-.185-.244-.453-.363-.8-.363-.345 0-.611.119-.799.363-.19.24-.282.586-.282 1.034 0 .45.092.796.282 1.039.188.243.454.366.799.366.348 0 .615-.123.8-.366"></path><path d="m25.822 45.456c.296.244.445.651.445 1.215v3.035h-1.217v-2.74c0-.238-.03-.419-.093-.546-.115-.231-.332-.346-.654-.346-.394 0-.665.168-.812.509-.078.178-.115.407-.115.685v2.438h-1.172v-4.504h1.131v.662c.151-.231.293-.401.428-.503.24-.182.547-.276.921-.276.462.002.845.125 1.138.371"></path><path d="m29.048 46.95c.218-.029.374-.063.468-.105.168-.072.254-.184.254-.338 0-.187-.066-.313-.194-.384-.128-.07-.317-.108-.566-.108-.28 0-.474.069-.592.205-.083.102-.139.237-.165.411h-1.143c.023-.388.134-.708.328-.96.313-.389.848-.586 1.606-.586.493 0 .929.096 1.316.287.382.191.573.559.573 1.105v2.074c0 .145.004.319.009.523.009.158.032.264.069.32.04.055.098.102.175.139v.171h-1.283c-.033-.09-.059-.175-.073-.257-.014-.079-.024-.169-.033-.271-.161.177-.348.327-.56.451-.254.147-.54.221-.862.221-.408 0-.744-.118-1.01-.352s-.398-.567-.398-.998c0-.556.214-.96.641-1.21.237-.136.582-.233 1.039-.292zm.716.547c-.075.047-.151.086-.226.115-.078.03-.18.058-.313.08l-.266.052c-.247.044-.428.099-.539.162-.188.109-.283.279-.283.507 0 .204.056.351.168.443.114.09.251.136.412.136.259 0 .493-.078.71-.227.215-.152.326-.427.336-.825v-.443z"></path><path d="m31.866 43.614h1.171v6.092h-1.171z"></path><path d="m37.865 43.601h1.431l2.151 6.105h-1.379l-.398-1.244h-2.241l-.408 1.244h-1.325zm-.089 3.803h1.557l-.767-2.408z"></path><path d="m42.044 43.614h1.171v6.092h-1.171z"></path><path d="m44.283 43.614h1.171v6.092h-1.171z"></path><path d="m46.526 49.704h1.174v-4.518h-1.174zm0-5.047h1.174v-1.087h-1.174z"></path><path d="m50.548 46.95c.218-.029.374-.063.47-.105.17-.072.254-.184.254-.338 0-.187-.068-.313-.194-.384-.129-.07-.319-.108-.566-.108-.279 0-.475.069-.592.205-.083.102-.138.237-.167.411h-1.142c.024-.388.135-.708.329-.96.31-.389.846-.586 1.603-.586.496 0 .934.096 1.317.287.382.191.573.559.573 1.105v2.074c0 .145.004.319.009.523.009.158.03.264.072.32.036.055.093.102.171.139v.171h-1.28c-.035-.09-.06-.175-.073-.257-.016-.079-.026-.169-.035-.271-.161.177-.349.327-.562.451-.253.147-.539.221-.86.221-.405 0-.744-.118-1.01-.352-.264-.234-.399-.567-.399-.998 0-.556.216-.96.644-1.21.236-.136.579-.233 1.037-.292zm.717.547c-.075.047-.148.086-.226.115-.075.03-.178.058-.312.08l-.264.052c-.249.044-.431.099-.54.162-.188.109-.283.279-.283.507 0 .204.056.351.168.443.115.09.251.136.412.136.257 0 .494-.078.71-.227.215-.152.328-.427.335-.825z"></path><path d="m56.984 45.456c.294.244.442.651.442 1.215v3.035h-1.215v-2.74c0-.238-.03-.419-.092-.546-.116-.231-.332-.346-.654-.346-.396 0-.665.168-.812.509-.076.178-.115.407-.115.685v2.438h-1.172v-4.504h1.131v.662c.148-.231.293-.401.428-.503.243-.182.549-.276.919-.276.465.002.845.125 1.14.371"></path><path d="m61.102 46.789c-.022-.165-.079-.315-.168-.447-.134-.18-.339-.269-.618-.269-.398 0-.669.194-.813.58-.078.214-.116.496-.116.848 0 .335.039.606.115.809.141.368.404.553.793.553.274 0 .468-.073.583-.22s.185-.336.211-.567h1.215c-.029.356-.157.69-.389 1.007-.366.51-.912.766-1.636.766s-1.256-.214-1.596-.642c-.343-.427-.511-.986-.511-1.676 0-.777.188-1.381.563-1.806.379-.425.898-.638 1.562-.638.563 0 1.024.126 1.383.376.361.25.572.691.638 1.326z"></path><path d="m65.948 45.283c.315.142.573.363.779.665.182.27.302.58.356.932.032.208.043.506.039.894h-3.281c.02.45.178.767.474.948.182.112.401.168.655.168.271 0 .49-.07.658-.205.092-.073.175-.178.247-.309h1.185c-.034.267-.18.54-.437.816-.402.438-.964.657-1.688.657-.598 0-1.125-.184-1.583-.553-.457-.369-.684-.971-.684-1.804 0-.78.205-1.379.621-1.793.411-.418.945-.625 1.603-.625.392 0 .743.069 1.056.209m-1.774 1.026c-.168.168-.274.395-.32.68h2.061c-.024-.303-.128-.536-.32-.692-.188-.157-.424-.236-.707-.236-.306 0-.546.082-.714.248"></path><path d="m73.615 49.149c-.381.467-.958.7-1.732.7s-1.352-.233-1.732-.7c-.381-.468-.569-1.03-.569-1.687 0-.646.188-1.205.569-1.679s.958-.711 1.732-.711 1.352.237 1.732.711c.381.474.57 1.033.57 1.679 0 .657-.189 1.219-.57 1.687m-.938-.652c.187-.243.277-.589.277-1.039 0-.448-.091-.794-.277-1.034-.187-.244-.453-.363-.8-.363-.346 0-.612.119-.799.363-.19.24-.282.586-.282 1.034 0 .45.092.796.282 1.039.187.243.453.366.799.366.347 0 .613-.123.8-.366"></path><path d="m78.546 45.456c.294.244.442.651.442 1.215v3.035h-1.215v-2.74c0-.238-.03-.419-.092-.546-.116-.231-.332-.346-.654-.346-.395 0-.665.168-.812.509-.079.178-.116.407-.116.685v2.438h-1.171v-4.504h1.131v.662c.148-.231.293-.401.428-.503.243-.182.547-.276.919-.276.464.002.845.125 1.14.371"></path><path d="m86.375 43.6h1.82v6.105h-1.174v-4.13c0-.118.003-.284.003-.498.004-.214.007-.378.007-.494l-1.158 5.123h-1.243l-1.151-5.123c0 .116.003.28.006.494s.003.381.003.498v4.13h-1.171v-6.105h1.837l1.115 4.801z"></path><path d="m92.097 45.283c.313.142.57.363.776.665.184.27.303.58.358.932.032.208.043.506.039.894h-3.281c.02.45.178.767.477.948.18.112.398.168.652.168.271 0 .49-.07.658-.205.095-.073.175-.178.246-.309h1.185c-.032.267-.177.54-.435.816-.402.438-.965.657-1.688.657-.596 0-1.125-.184-1.583-.553-.454-.369-.684-.971-.684-1.804 0-.78.205-1.379.619-1.793.411-.418.947-.625 1.605-.625.391 0 .741.069 1.056.209m-1.776 1.026c-.168.168-.276.395-.32.68h2.061c-.023-.303-.128-.536-.319-.692-.19-.157-.427-.236-.708-.236-.307 0-.546.082-.714.248"></path><path d="m97.39 45.456c.294.244.442.651.442 1.215v3.035h-1.215v-2.74c0-.238-.03-.419-.095-.546-.114-.231-.329-.346-.652-.346-.394 0-.664.168-.812.509-.078.178-.115.407-.115.685v2.438h-1.171v-4.504h1.128v.662c.151-.231.296-.401.431-.503.24-.182.549-.276.917-.276.467.002.846.125 1.142.371"></path><path d="m98.361 46.074v-.829h.629v-1.273h1.172v1.273h.73v.829h-.73v2.388c0 .187.023.302.07.346.047.047.188.069.428.069.036 0 .073-.001.114-.003.042-.001.079-.007.118-.01v.886l-.559.013c-.559.02-.939-.076-1.143-.289-.134-.135-.2-.345-.2-.625v-2.775z"></path><path d="m103.324 46.95c.218-.029.374-.063.468-.105.168-.072.251-.184.251-.338 0-.187-.063-.313-.191-.384-.128-.07-.316-.108-.566-.108-.279 0-.478.069-.592.205-.083.102-.138.237-.165.411h-1.145c.024-.388.135-.708.329-.96.315-.389.848-.586 1.608-.586.491 0 .928.096 1.314.287.382.191.573.559.573 1.105v2.074c0 .145.004.319.009.523.009.158.033.264.069.32.04.055.098.102.175.139v.171h-1.278c-.039-.09-.063-.175-.078-.257-.014-.079-.024-.169-.033-.271-.161.177-.349.327-.56.451-.254.147-.542.221-.862.221-.407 0-.744-.118-1.01-.352s-.398-.567-.398-.998c0-.556.213-.96.641-1.21.237-.136.582-.233 1.039-.292zm.717.547c-.073.047-.151.086-.226.115-.078.03-.181.058-.313.08l-.266.052c-.25.044-.428.099-.539.162-.188.109-.283.279-.283.507 0 .204.057.351.168.443.115.09.251.136.412.136.254 0 .494-.078.71-.227.215-.152.326-.427.336-.825v-.443z"></path><path d="m106.141 43.614h1.172v6.092h-1.172z"></path><path d="m110.597 43.6h1.26v6.107h-1.26z"></path><path d="m112.865 43.614h1.174v6.092h-1.174z"></path><path d="m115.109 43.614h1.172v6.092h-1.172z"></path><path d="m120.97 45.456c.293.244.441.651.441 1.215v3.035h-1.215v-2.74c0-.238-.03-.419-.095-.546-.113-.231-.329-.346-.651-.346-.396 0-.665.168-.812.509-.076.178-.113.407-.113.685v2.438h-1.175v-4.504h1.132v.662c.149-.231.293-.401.428-.503.241-.182.549-.276.918-.276.467.002.846.125 1.142.371"></path><path d="m125.336 45.283c.313.142.569.363.774.665.184.27.303.58.361.932.03.208.042.506.037.894h-3.281c.019.45.177.767.474.948.181.112.399.168.655.168.27 0 .488-.07.658-.205.093-.073.174-.178.244-.309h1.185c-.03.267-.175.54-.434.816-.404.438-.967.657-1.689.657-.596 0-1.125-.184-1.58-.553-.457-.369-.687-.971-.687-1.804 0-.78.205-1.379.619-1.793.414-.418.947-.625 1.606-.625.392 0 .744.069 1.058.209m-1.775 1.026c-.17.168-.276.395-.317.68h2.059c-.022-.303-.128-.536-.319-.692-.19-.157-.427-.236-.71-.236-.308 0-.545.082-.713.248"></path><path d="m127.882 48.248c.027.21.08.361.165.45.151.159.427.237.835.237.236 0 .424-.034.565-.103.139-.07.21-.174.21-.312 0-.132-.057-.234-.168-.303-.113-.069-.529-.185-1.245-.351-.519-.126-.881-.283-1.085-.473-.203-.187-.305-.455-.305-.807 0-.414.164-.769.491-1.067.325-.296.789-.447 1.381-.447.565 0 1.023.115 1.379.339.353.224.557.613.611 1.164h-1.172c-.017-.152-.062-.271-.132-.361-.129-.158-.352-.24-.667-.24-.257 0-.444.039-.556.119-.108.08-.161.174-.161.28 0 .137.057.233.175.295.118.063.529.169 1.235.323.471.109.822.274 1.05.499.227.224.34.507.34.845 0 .447-.167.81-.499 1.093-.332.28-.845.422-1.543.422-.708 0-1.231-.151-1.57-.453-.338-.3-.507-.684-.507-1.149z"></path><path d="m132.481 48.248c.026.21.08.361.165.45.151.159.427.237.833.237.236 0 .427-.034.565-.103.141-.07.211-.174.211-.312 0-.132-.057-.234-.17-.303s-.527-.185-1.245-.351c-.517-.126-.881-.283-1.083-.473-.204-.187-.306-.455-.306-.807 0-.414.165-.769.491-1.067.326-.296.787-.447 1.381-.447.566 0 1.023.115 1.379.339.355.224.557.613.611 1.164h-1.171c-.019-.152-.062-.271-.132-.361-.131-.158-.353-.24-.667-.24-.259 0-.444.039-.556.119-.108.08-.162.174-.162.28 0 .137.059.233.177.295.116.063.529.169 1.235.323.47.109.822.274 1.05.499.226.224.34.507.34.845 0 .447-.168.81-.499 1.093-.333.28-.846.422-1.543.422-.71 0-1.231-.151-1.572-.453-.336-.3-.506-.684-.506-1.149z"></path><path d="m183.959 5.549.692 10.287h-.692c-.923-3.079-2.239-5.296-3.95-6.649-1.711-1.354-3.764-2.031-6.158-2.031-2.008 0-3.823.51-5.445 1.529s-2.897 2.644-3.827 4.875-1.395 5.006-1.395 8.323c0 2.737.438 5.11 1.316 7.118.877 2.008 2.198 3.548 3.961 4.619s3.774 1.606 6.036 1.606c1.963 0 3.696-.42 5.199-1.26 1.502-.84 3.154-2.51 4.954-5.01l.692.446c-1.517 2.693-3.288 4.664-5.311 5.913-2.023 1.25-4.426 1.874-7.207 1.874-5.013 0-8.896-1.859-11.648-5.578-2.053-2.767-3.079-6.025-3.079-9.773 0-3.02.677-5.794 2.031-8.323s3.217-4.489 5.59-5.88 4.965-2.086 7.776-2.086c2.187 0 4.344.536 6.471 1.607.625.327 1.071.491 1.339.491.402 0 .751-.141 1.049-.424.387-.402.662-.959.826-1.674h.78z"></path><path d="m199.935 33.553c-2.097 1.622-3.414 2.559-3.949 2.812-.803.372-1.659.558-2.566.558-1.413 0-2.577-.483-3.492-1.45s-1.372-2.239-1.372-3.816c0-.996.223-1.859.669-2.588.61-1.011 1.67-1.964 3.18-2.856 1.51-.893 4.02-1.978 7.531-3.258v-.803c0-2.038-.323-3.436-.971-4.195-.647-.759-1.588-1.138-2.823-1.138-.937 0-1.681.253-2.231.759-.565.506-.848 1.086-.848 1.74l.045 1.294c0 .684-.175 1.213-.524 1.584-.35.372-.807.558-1.372.558-.551 0-1-.193-1.35-.58s-.524-.915-.524-1.584c0-1.279.654-2.454 1.964-3.525 1.309-1.071 3.146-1.607 5.511-1.607 1.815 0 3.302.305 4.463.915.877.461 1.525 1.183 1.941 2.164.268.64.402 1.949.402 3.927v6.939c0 1.949.037 3.143.112 3.581.074.439.197.733.368.881.171.149.368.223.591.223.238 0 .446-.052.625-.156.312-.193.915-.736 1.807-1.629v1.25c-1.666 2.231-3.258 3.347-4.775 3.347-.729 0-1.309-.253-1.74-.759-.434-.505-.657-1.368-.672-2.588zm0-1.45v-7.787c-2.246.892-3.697 1.525-4.351 1.896-1.175.655-2.016 1.339-2.521 2.053-.506.714-.759 1.495-.759 2.343 0 1.071.32 1.96.959 2.667s1.376 1.06 2.209 1.06c1.131-.001 2.618-.745 4.463-2.232z"></path><path d="m215.666 4.768v27.111c0 1.28.093 2.127.279 2.544s.472.733.859.948c.387.216 1.108.324 2.165.324v.803h-10.019v-.803c.937 0 1.577-.097 1.919-.29s.61-.513.803-.959.29-1.302.29-2.566v-18.566c0-2.306-.052-3.722-.156-4.251-.104-.528-.272-.889-.502-1.082-.231-.193-.524-.29-.881-.29-.387 0-.878.119-1.473.357l-.379-.781 6.092-2.499z"></path><path d="m228.385 15.457v16.423c0 1.28.093 2.131.279 2.555s.461.74.826.948c.364.208 1.03.312 1.997.312v.803h-9.93v-.803c.997 0 1.666-.097 2.008-.29s.614-.513.814-.959c.201-.446.301-1.302.301-2.566v-7.877c0-2.216-.067-3.652-.201-4.306-.104-.476-.268-.807-.491-.993s-.528-.279-.915-.279c-.417 0-.922.112-1.517.335l-.312-.803 6.158-2.499h.983zm-1.852-10.689c.625 0 1.156.22 1.595.658.438.439.658.97.658 1.595s-.22 1.16-.658 1.606c-.439.446-.971.669-1.595.669s-1.16-.223-1.607-.669-.669-.982-.669-1.606c0-.625.219-1.156.658-1.595.439-.438.978-.658 1.618-.658z"></path><path d="m242.018 17.666v13.433c0 1.904.208 3.109.625 3.615.55.655 1.287.982 2.209.982h1.852v.803h-12.205v-.803h.915c.595 0 1.138-.149 1.629-.446s.829-.699 1.015-1.205c.186-.505.279-1.487.279-2.945v-13.434h-3.972v-1.607h3.972v-1.339c0-2.038.327-3.763.982-5.177.655-1.413 1.655-2.555 3.001-3.425s2.86-1.305 4.541-1.305c1.562 0 2.997.506 4.307 1.517.863.669 1.294 1.421 1.294 2.254 0 .446-.194.867-.58 1.261-.387.394-.803.591-1.25.591-.342 0-.703-.123-1.082-.368s-.844-.773-1.395-1.584-1.056-1.357-1.517-1.64c-.461-.282-.974-.424-1.54-.424-.684 0-1.265.182-1.74.547-.476.365-.818.93-1.026 1.696s-.312 2.741-.312 5.924v1.473h5.266v1.607h-5.268z"></path><path d="m259.245 15.457c3.094 0 5.578 1.175 7.453 3.526 1.592 2.008 2.388 4.314 2.388 6.917 0 1.83-.439 3.682-1.317 5.556-.878 1.875-2.086 3.288-3.626 4.24s-3.254 1.428-5.143 1.428c-3.079 0-5.527-1.227-7.341-3.682-1.532-2.068-2.298-4.388-2.298-6.962 0-1.874.465-3.738 1.395-5.59.929-1.852 2.153-3.22 3.67-4.106 1.516-.885 3.123-1.327 4.819-1.327zm-.692 1.45c-.789 0-1.581.234-2.376.703-.796.469-1.439 1.291-1.93 2.466s-.736 2.685-.736 4.53c0 2.975.591 5.541 1.774 7.698s2.741 3.235 4.675 3.235c1.443 0 2.633-.595 3.57-1.785s1.406-3.235 1.406-6.136c0-3.629-.781-6.486-2.343-8.568-1.058-1.429-2.404-2.143-4.04-2.143z"></path><path d="m278.077 15.457v4.597c1.71-3.064 3.466-4.597 5.266-4.597.818 0 1.495.249 2.031.748s.803 1.075.803 1.729c0 .58-.193 1.071-.58 1.473s-.848.603-1.383.603c-.521 0-1.105-.257-1.752-.77s-1.127-.77-1.439-.77c-.268 0-.558.149-.87.446-.669.61-1.361 1.614-2.075 3.012v9.796c0 1.131.141 1.986.424 2.566.193.402.536.736 1.026 1.004.491.268 1.197.402 2.12.402v.803h-10.465v-.803c1.041 0 1.815-.164 2.321-.491.372-.238.632-.617.781-1.138.074-.253.112-.974.112-2.165v-7.922c0-2.38-.048-3.797-.145-4.251s-.275-.784-.535-.993c-.26-.208-.584-.312-.971-.312-.461 0-.982.112-1.562.335l-.223-.803 6.181-2.499z"></path><path d="m293.273 19.785c2.395-2.886 4.678-4.329 6.85-4.329 1.116 0 2.075.279 2.878.837s1.443 1.477 1.919 2.756c.327.893.491 2.261.491 4.106v8.725c0 1.294.104 2.172.312 2.633.164.372.427.662.792.87.364.208 1.038.312 2.019.312v.803h-10.108v-.803h.424c.952 0 1.618-.145 1.997-.435s.643-.718.792-1.283c.059-.223.089-.922.089-2.097v-8.368c0-1.859-.242-3.209-.725-4.05-.484-.84-1.298-1.261-2.443-1.261-1.771 0-3.533.967-5.288 2.901v10.777c0 1.384.082 2.239.246 2.566.208.431.494.747.859.948s1.104.301 2.22.301v.803h-10.107v-.803h.446c1.041 0 1.744-.264 2.109-.792.364-.528.547-1.536.547-3.023v-7.587c0-2.454-.056-3.949-.167-4.485-.112-.536-.283-.9-.513-1.094-.231-.193-.539-.29-.926-.29-.417 0-.915.112-1.495.335l-.335-.803 6.158-2.499h.959z"></path><path d="m317.215 15.457v16.423c0 1.28.093 2.131.279 2.555s.461.74.826.948c.364.208 1.03.312 1.997.312v.803h-9.93v-.803c.997 0 1.666-.097 2.008-.29s.614-.513.814-.959c.201-.446.301-1.302.301-2.566v-7.877c0-2.216-.067-3.652-.201-4.306-.104-.476-.268-.807-.491-.993s-.528-.279-.915-.279c-.417 0-.922.112-1.517.335l-.312-.803 6.158-2.499h.983zm-1.852-10.689c.625 0 1.156.22 1.595.658.438.439.658.97.658 1.595s-.22 1.16-.658 1.606c-.439.446-.971.669-1.595.669s-1.16-.223-1.607-.669-.669-.982-.669-1.606c0-.625.219-1.156.658-1.595.439-.438.978-.658 1.618-.658z"></path><path d="m334.441 33.553c-2.097 1.622-3.414 2.559-3.949 2.812-.803.372-1.659.558-2.566.558-1.413 0-2.577-.483-3.492-1.45s-1.372-2.239-1.372-3.816c0-.996.223-1.859.669-2.588.61-1.011 1.67-1.964 3.18-2.856 1.51-.893 4.02-1.978 7.531-3.258v-.803c0-2.038-.323-3.436-.971-4.195-.647-.759-1.588-1.138-2.823-1.138-.937 0-1.681.253-2.231.759-.565.506-.848 1.086-.848 1.74l.045 1.294c0 .684-.175 1.213-.524 1.584-.35.372-.807.558-1.372.558-.551 0-1-.193-1.35-.58s-.524-.915-.524-1.584c0-1.279.654-2.454 1.964-3.525 1.309-1.071 3.146-1.607 5.511-1.607 1.815 0 3.302.305 4.463.915.877.461 1.525 1.183 1.941 2.164.268.64.402 1.949.402 3.927v6.939c0 1.949.037 3.143.112 3.581.074.439.197.733.368.881.171.149.368.223.591.223.238 0 .446-.052.625-.156.312-.193.915-.736 1.807-1.629v1.25c-1.666 2.231-3.258 3.347-4.775 3.347-.729 0-1.309-.253-1.74-.759-.434-.505-.657-1.368-.672-2.588zm0-1.45v-7.787c-2.246.892-3.697 1.525-4.351 1.896-1.175.655-2.016 1.339-2.521 2.053-.506.714-.759 1.495-.759 2.343 0 1.071.32 1.96.959 2.667s1.376 1.06 2.209 1.06c1.131-.001 2.618-.745 4.463-2.232z"></path></g></svg>