<svg data-name="Layer 1" xmlns="http://www.w3.org/2000/svg" width="880.671" height="624.281">
  <path d="M351.249 411.586a16.44 16.44 0 01-4.808-.72L11.685 308.695A16.518 16.518 0 01.72 288.098L85.083 11.685A16.518 16.518 0 01105.681.721L440.437 102.89a16.519 16.519 0 0110.965 20.598l-84.363 276.413a16.53 16.53 0 01-15.79 11.685z" fill="#6c63ff"/>
  <path d="M401.1 367.281h-350a17.02 17.02 0 01-17-17v-289a17.02 17.02 0 0117-17h350a17.02 17.02 0 0117 17v289a17.02 17.02 0 01-17 17zm-350-321a15.017 15.017 0 00-15 15v289a15.017 15.017 0 0015 15h350a15.017 15.017 0 0015-15v-289a15.017 15.017 0 00-15-15z" fill="#3f3d56"/>
  <path d="M226.1 333.281a1 1 0 01-1-1v-195a1 1 0 012 0v195a1 1 0 01-1 1z" fill="#fff"/>
  <path d="M226.101 286.588a1 1 0 01-.436-1.9l106-51.307a1 1 0 11.871 1.8l-106 51.307a.99.99 0 01-.435.1zM226.101 235.281a1 1 0 01-.473-1.882l71-38a1 1 0 01.944 1.764l-71 38a1 1 0 01-.47.118zM226.101 178.305a1 1 0 01-.481-1.877l42-23.024a1 1 0 01.961 1.754l-42 23.024a.997.997 0 01-.48.123z" fill="#fff"/>
  <path d="M226.1 286.588a.99.99 0 01-.435-.1l-106-51.307a1 1 0 11.871-1.8l106 51.307a1 1 0 01-.436 1.9zM226.1 235.281a1 1 0 01-.472-.118l-71-38a1 1 0 01.944-1.764l71 38a1 1 0 01-.473 1.882zM226.1 178.305a.997.997 0 01-.48-.123l-42-23.024a1 1 0 01.961-1.754l42 23.024a1 1 0 01-.482 1.877z" fill="#fff"/>
  <path d="M243.1 366.781h-34a6.507 6.507 0 01-6.5-6.5v-22a6.507 6.507 0 016.5-6.5h34a6.507 6.507 0 016.5 6.5v22a6.507 6.507 0 01-6.5 6.5z" fill="#3f3d56"/>
  <circle cx="35.589" cy="103.864" r="14.633" fill="#ff6584"/>
  <path d="M432.132 50.215c0 .56-.016 1.113-.065 1.658a22.76 22.76 0 11-42.825-12.283 20.922 20.922 0 011.674-2.691 22.753 22.753 0 0141.135 11.462c.057.61.08 1.228.08 1.854z" fill="#3f3d56"/>
  <circle cx="347.848" cy="365.872" r="14.633" fill="#e6e6e6"/>
  <circle cx="235.848" cy="44.872" r="14.633" fill="#e6e6e6"/>
  <path d="M812.1 623.281a1 1 0 01-1-1v-18a1 1 0 012 0v18a1 1 0 01-1 1z" fill="#e6e6e6"/>
  <circle cx="812.1" cy="594.281" r="5" fill="#e6e6e6"/>
  <path d="M811.1 615.281s6.25-11.25 15-7.5M542.1 623.281a1 1 0 01-1-1v-18a1 1 0 012 0v18a1 1 0 01-1 1z" fill="#e6e6e6"/>
  <circle cx="542.1" cy="594.281" r="5" fill="#e6e6e6"/>
  <path d="M541.1 615.281s6.25-11.25 15-7.5M591.1 623.281a1 1 0 01-1-1v-18a1 1 0 012 0v18a1 1 0 01-1 1z" fill="#e6e6e6"/>
  <circle cx="591.1" cy="594.281" r="5" fill="#e6e6e6"/>
  <path d="M590.1 615.281s6.25-11.25 15-7.5" fill="#e6e6e6"/>
  <path d="M622.399 547.076a4.098 4.098 0 01.23-.34 6.958 6.958 0 01.76-1.35l25.16-35.2 20.73-28.99h35.36l-2.5 3.49-4.45 6.23-13.79 19.28-29.55 41.33 27.39 55.02c1.12 2.24-.79 5.46-4.24 7.18l-13.21 6.58a9.712 9.712 0 01-4.23 1.06c-1.86 0-3.41-.69-4.06-2l-34.05-68.4a3.963 3.963 0 01.45-3.89z" fill="#6c63ff"/>
  <path d="M697.168 616.216v-125.01a1.968 1.968 0 01.022-.348 7.443 7.443 0 014.764-6.637 7.313 7.313 0 012.714-.515h14.76a7.508 7.508 0 017.5 7.5v125.01a7.508 7.508 0 01-7.5 7.5h-14.76a7.508 7.508 0 01-7.5-7.5zM679.316 392.61L614.61 497.23a7.517 7.517 0 01-10.324 2.43L591.73 491.9a7.516 7.516 0 01-2.429-10.323l64.709-104.623a7.106 7.106 0 011.161-1.432 7.471 7.471 0 019.162-.997l12.555 7.762a7.478 7.478 0 013.355 4.661 7.771 7.771 0 01.172 2.318 7.442 7.442 0 01-1.099 3.344z" fill="#6c63ff"/>
  <path d="M682.713 390.742l-25.06 51.364a7.509 7.509 0 01-10.288 2.555L623.4 430.63a7.537 7.537 0 01-3.402-4.619 7.514 7.514 0 01.907-5.743l32.747-45.594a2.185 2.185 0 01.395-.482c1.193-1.134 3.876-1.536 6.029-1.858l.335-.052c.578-.089 1.077-.165 1.429-.255l.134-.03c.143-.031.291-.063.426-.082a7.468 7.468 0 015.094.977l12.635 7.626a7.584 7.584 0 013.61 7.03 7.2 7.2 0 01-1.026 3.193z" fill="#2f2e41"/>
  <circle cx="691.237" cy="277.374" r="53.519" fill="#6c63ff"/>
  <path d="M694.361 306.21l.056-2c-3.721-.104-7.001-.337-9.466-2.138a6.148 6.148 0 01-2.382-4.528 3.514 3.514 0 011.153-2.895c1.637-1.382 4.27-.934 6.188-.055l1.655.76-3.173-23.191-1.982.271 2.7 19.727c-2.608-.767-5.024-.437-6.679.96a5.47 5.47 0 00-1.86 4.493 8.133 8.133 0 003.2 6.073c3.167 2.315 7.283 2.43 10.59 2.523zM665.84 274.135h10.771v2H665.84zM699.84 274.135h10.771v2H699.84zM621.45 537.67c-3.535-.204-6.291-6.015-6.291-13.302l21-120.672a54.363 54.363 0 011.705-13.524v-.001a52.936 52.936 0 011.454-4.693 53.865 53.865 0 0117.025-23.88 45.918 45.918 0 012.728-2.06 53.642 53.642 0 0114.81-7.336 9.372 9.372 0 01-.222-2.006 9.51 9.51 0 019.5-9.5h14a9.51 9.51 0 019.5 9.5 9.373 9.373 0 01-.222 2.002 54.031 54.031 0 0137.722 51.498l20 120.672c0 7.474-2.855 13.328-6.5 13.328h-136a.74.74 0 01-.21-.025z" fill="#2f2e41"/>
  <path d="M704.293 519.221a7.51 7.51 0 01-.984-3.575l-2.104-122.994a7.49 7.49 0 012.104-5.342l.002-.001a7.496 7.496 0 015.263-2.29l14.76-.248a7.495 7.495 0 017.579 6.621 5.957 5.957 0 01.048.742l2.112 123.002a7.518 7.518 0 01-7.377 7.625l-14.755.254a7.53 7.53 0 01-6.648-3.794z" fill="#6c63ff"/>
  <path d="M698.09 434.76a7.508 7.508 0 01-.965-3.208l.63-56.984a7.509 7.509 0 016.892-8.063l14.713-1.153a7.547 7.547 0 015.023 1.428c.15.115.302.254.449.353a14.033 14.033 0 001.148.86l.319.227c2.115 1.497 4.512 3.194 4.628 4.848l8.852 55.595a7.382 7.382 0 01-1.096 4.526 6.814 6.814 0 01-.677.94 6.475 6.475 0 01-.721.724 7.427 7.427 0 01-4.409 1.884l-27.69 1.786a7.508 7.508 0 01-7.097-3.763zM716.802 256.717a18.58 18.58 0 00-20.536-11.922 18.442 18.442 0 00-8.311 4.115c-4.977 4.018-8.786 10.069-15.286 11.777-5.567 1.463-11.657-.362-16.121-3.827-10.843-8.415-9.037-24.405-.979-34.106 9.354-11.262 25.265-14.52 39.227-13.593 14.575.967 28.616 6.662 40.375 15.21 11.88 8.636 21.228 20.391 27.97 33.372a119.752 119.752 0 018.337 20.669 100.047 100.047 0 014.507 23.06c.427 7.63-.625 15.48-4.706 22.075-3.369 5.446-8.646 9.883-15.051 11.093a17.22 17.22 0 01-15.85-5.881 12.568 12.568 0 01.339-16.77 12.827 12.827 0 0118.307-.333c2.278 2.358 3.642 5.868 2.61 9.101-.87 2.72-3.59 5.226-6.595 4.94-2.835-.27-5.41-3.2-4.73-6.08.443-1.877-2.45-2.678-2.893-.797a8.142 8.142 0 003.962 8.725 8.388 8.388 0 009.48-.755c6.322-4.86 4.64-13.984-1.125-18.519a15.907 15.907 0 00-20.754 1.195 15.592 15.592 0 00-2.477 19.008 20.31 20.31 0 0016.414 9.405c7.04.232 13.706-3.701 18.14-8.953 11.22-13.288 8.565-32.014 4.39-47.538a116.612 116.612 0 00-21.354-43.01 88.646 88.646 0 00-38.178-27.696c-14.59-5.357-31.658-6.757-46.378-1.08-7.14 2.753-13.63 7.213-18.014 13.566a30.465 30.465 0 00-5.45 20.54 22.92 22.92 0 0010.12 16.569c5.23 3.492 12.11 5.021 18.191 3.033 7.218-2.36 11.003-9.198 17.038-13.268a15.065 15.065 0 0117.343.581 13.916 13.916 0 015.145 6.891c.6 1.826 3.498 1.044 2.893-.797zM748.331 441.768c5.35.036 11.024.187 15.946 2.538 3.921 1.873 7.55 5.155 8.346 9.61.715 4-1.075 8.688-5.193 9.987-4.652 1.467-9.36-1.245-11.895-5.086-3.418-5.18-3.65-11.556-3.865-17.56-.068-1.924-3.068-1.933-3 0 .226 6.342.547 13.024 3.963 18.583 2.975 4.842 8.281 8.203 14.107 7.29 5.337-.835 8.691-5.516 9.007-10.712.328-5.404-2.869-10.126-7.176-13.1-5.892-4.068-13.311-4.503-20.24-4.55a1.5 1.5 0 000 3z" fill="#2f2e41"/>
  <path d="M749.088 441.563c5.11-3.213 10.285-6.777 13.51-12.014 2.931-4.76 4.068-10.896 1.399-16.025-2.36-4.535-7.433-7.578-12.573-6.325-5.458 1.33-8.934 6.462-9.601 11.81-.916 7.34 2.74 14.056 6.255 20.206a1.501 1.501 0 002.59-1.514c-2.665-4.665-5.544-9.587-5.941-15.069-.344-4.738 1.325-9.741 5.831-11.95 3.935-1.93 8.228.051 10.414 3.594 2.54 4.118 1.655 9.217-.652 13.23-2.912 5.067-7.91 8.425-12.746 11.467-1.63 1.025-.126 3.622 1.514 2.59z" fill="#2f2e41"/>
  <path d="M879.671 624.281h-381a1 1 0 010-2h381a1 1 0 010 2z" fill="#ccc"/>
</svg>