<?xml version="1.0" encoding="utf-8"?>
<!-- Generator: Adobe Illustrator 25.1.0, SVG Export Plug-In . SVG Version: 6.00 Build 0)  -->
<svg version="1.1" id="Layer_1" xmlns="http://www.w3.org/2000/svg" xmlns:xlink="http://www.w3.org/1999/xlink" x="0px" y="0px"
	 viewBox="0 0 80 100" style="enable-background:new 0 0 80 100;" xml:space="preserve">
<style type="text/css">
	.st0{fill:#6CBE45;}
</style>
<g>
	<g>
		<rect x="13.3" y="22.9" class="st0" width="2.9" height="54.2"/>
	</g>
	<g>
		<rect x="64.6" y="22.9" class="st0" width="2.9" height="54.2"/>
	</g>
	<g>
		<rect x="3.1" y="58.1" class="st0" width="73.3" height="2.9"/>
	</g>
	<g>
		<path class="st0" d="M67.5,68.3h-2.9c0-3.2,1-5.9,2.9-7.6c3.1-2.9,7.3-2.6,7.5-2.6L74.9,61c0,0-3.2-0.1-5.3,1.9
			C68.1,64.1,67.5,66,67.5,68.3z"/>
	</g>
	<g>
		<path class="st0" d="M16.3,68.3h-2.9c0-2.3-0.7-4.2-1.9-5.4C9.4,61,6.2,61,6.2,61L6,58.1c0.1,0,4.4-0.1,7.5,2.6
			C15.1,62.5,16.3,65.1,16.3,68.3z"/>
	</g>
	<g>
		<path class="st0" d="M39.6,49.3c-3.7,0-12.7-0.7-19.2-6.6c-4.7-4.2-7-10.4-7-18.3h2.9c0,7,2.1,12.5,6.2,16.1
			c7.3,6.7,18.6,5.9,18.6,5.9l0.3,2.9C41.2,49.3,40.4,49.3,39.6,49.3z"/>
	</g>
	<g>
		<path class="st0" d="M41.2,49.3c-1,0-1.6,0-1.8,0l0.3-2.9c0.1,0,11.4,0.9,18.8-5.9c4.1-3.7,6.2-9.2,6.2-16.1h2.9
			c0,7.9-2.3,14.1-7,18.3C53.9,48.7,44.8,49.3,41.2,49.3z"/>
	</g>
	<g>
		<path class="st0" d="M75.5,45.6c-7.3-4.2-11-11.3-11-21.2h2.9c0,8.8,3.2,15.1,9.5,18.6L75.5,45.6z"/>
	</g>
	<g>
		<path class="st0" d="M5.1,44.1l-1.5-2.5c6.3-3.7,9.5-10,9.5-18.8h2.9C16.3,32.7,12.5,39.9,5.1,44.1z"/>
	</g>
	<g>
		<rect x="23.6" y="43.4" class="st0" width="2.9" height="16.1"/>
	</g>
	<g>
		<rect x="54.4" y="43.4" class="st0" width="2.9" height="16.1"/>
	</g>
	<g>
		<rect x="33.8" y="47.8" class="st0" width="2.9" height="10.3"/>
	</g>
	<g>
		<rect x="44.1" y="47.8" class="st0" width="2.9" height="10.3"/>
	</g>
</g>
</svg>
